# xmcd
#
# Track frame offsets:
#	150
#	7340
#	21435
#	32352
#	39345
#	48942
#	61255
#	70807
#	78482
#	83722
#	88740
#	97030
#	103952
#	110782
#	124205
#	126985
#	142605
#	147780
#	156392
#	164925
#	177255
#	188522
#	197617
#	206850
#	220122
#	231132
#	237957
#
# Disc length: 3289 seconds
#
# Revision: 1
# Processed by: cddbd v1.5PL3 Copyright (c) Steve Scherf et al.
# Submitted via: audiograbber 1.80
#
DISCID=850cd71b
DTITLE=frankie laine - `I Believe cd6
DYEAR=1900
DGENRE=
TTITLE0=Sunny Side Of The Street (title vers.) 
TTITLE1=I'm Gonna Live Till I Die 
TTITLE2=I May Be Wrong (& Toni Arden) 
TTITLE3=Sunny Side Of The Street (& Tony Fontaine) 
TTITLE4=Wrap Your Troubles In Dreams 
TTITLE5=Girl In The Wood 
TTITLE6=Wonderful Wasn't It (& Charlotte Austin) 
TTITLE7=Rainbow Round My Shoulder (& C. Austin) 
TTITLE8=Bring Your Smile Along (title vers.) 
TTITLE9=When A Girl Is Beautiful 
TTITLE10=Bring Your Smile Along (& Bob M. Choir) 
TTITLE11=If Spring Never Comes 
TTITLE12=Mama Mia (& C. Towers and K. Brasselle) 
TTITLE13=Side By Side (& Keefe Brasselle) 
TTITLE14=Mama Mia 
TTITLE15=Gandy Dancer's Ball He Laughed Last 
TTITLE16=Save Your Sorrows For Tomorrow 
TTITLE17=Danny Boy (corus) 
TTITLE18=danny boy (solo) 
TTITLE19=Hell Hath No Fury 
TTITLE20=Blowing Wild (The Ballad Of Black Gold) 
TTITLE21=Man Without A Star 
TTITLE22=Strange Lady In Town 
TTITLE23=Gunfight At The O.K. Corral 
TTITLE24=3:10 To Yuma 
TTITLE25=Bullwhip 
TTITLE26=Rawhide 
EXTD=
EXTT0=
EXTT1=
EXTT2=
EXTT3=
EXTT4=
EXTT5=
EXTT6=
EXTT7=
EXTT8=
EXTT9=
EXTT10=
EXTT11=
EXTT12=
EXTT13=
EXTT14=
EXTT15=
EXTT16=
EXTT17=
EXTT18=
EXTT19=
EXTT20=
EXTT21=
EXTT22=
EXTT23=
EXTT24=
EXTT25=
EXTT26=
PLAYORDER=
